<?xml version="1.0" encoding="UTF-8"?>
<svg width="127px" height="24px" viewBox="0 0 127 24" version="1.1" xmlns="http://www.w3.org/2000/svg" xmlns:xlink="http://www.w3.org/1999/xlink">
    <!-- Generator: sketchtool 52.6 (67491) - http://www.bohemiancoding.com/sketch -->
    <title>9A22865B-54EE-43C4-9410-E8B67FC7E2A4</title>
    <desc>Created with sketchtool.</desc>
    <g id="🚀-Present" stroke="none" stroke-width="1" fill="none" fill-rule="evenodd">
        <g id="Homepage" transform="translate(-461.000000, -128.000000)">
            <g id="Logo" transform="translate(461.000000, 126.000000)">
                <g transform="translate(0.000000, -2.000000)">
                    <text id="mailbots" font-family="Lato-Bold, Lato" font-size="26" font-weight="bold" letter-spacing="-1" fill="#121216">
                        <tspan x="35" y="26">mail</tspan>
                        <tspan x="80.595" y="26" font-family="Lato-Regular, Lato" font-weight="normal">bot</tspan>
                        <tspan x="116.283" y="26" font-family="Lato-Regular, Lato" font-weight="normal">s</tspan>
                    </text>
                    <g id="noun_Reply_1330_000000" transform="translate(0.000000, 4.000000)" fill="#000000">
                        <path d="M30,8.7891 L19.6848,0.1935 L19.6848,5.487 C19.6848,5.487 19.6836,5.487 19.6812,5.487 C19.4499,5.487 6.8766,5.5395 6.8766,16.9305 C6.8766,16.9305 10.7826,11.7267 17.016,11.7267 C17.8638,11.7267 18.7542,11.8227 19.6848,12.0417 L19.6848,17.385 L30,8.7891 Z" id="Path"></path>
                        <path d="M23.2086,21.228 L2.5788,21.228 L2.5788,7.0446 L9.0117,7.0446 C9.9654,6.2358 11.0628,5.5422 12.3054,4.9791 C12.7344,4.785 13.1613,4.617 13.5831,4.4658 L0,4.4658 L0,23.8065 L25.7874,23.8065 L25.7874,15.0969 L23.2086,17.2458 L23.2086,21.228 Z" id="Path"></path>
                    </g>
                </g>
            </g>
        </g>
    </g>
</svg>